<svg xmlns="http://www.w3.org/2000/svg" viewBox="0 0 512 512"><rect width="512" height="512" rx="104" fill="#0B1020"/><g transform="translate(78 92) scale(1.07)"><path fill="#fff" fill-rule="evenodd" d="M91.5 284.4C92.1 283.8 95.3 277.0 100.5 265.0C104.6 255.6 105.2 254.3 106.2 253.7C107.1 253.1 110.1 251.5 126.1 243.4C135.6 238.5 142.0 235.1 148.9 231.2C150.5 230.3 153.9 228.5 156.4 227.2C158.8 225.9 162.2 224.1 163.9 223.2C167.5 221.3 170.5 219.7 174.9 217.4C176.7 216.4 179.0 215.2 180.1 214.6C184.6 212.2 186.2 211.4 188.5 210.1C191.0 208.8 201.1 203.4 207.2 200.0C211.4 197.7 211.4 197.7 208.6 196.0C207.4 195.3 205.8 194.3 205.1 193.9C204.4 193.4 202.8 192.4 201.5 191.6C200.2 190.8 198.6 189.8 197.9 189.4C193.3 186.5 172.9 173.9 169.9 172.2C168.8 171.5 167.7 171.0 167.4 171.0C166.9 171.0 161.8 174.0 146.8 183.2C144.9 184.4 142.1 186.1 140.5 187.1C137.8 188.7 126.9 195.4 125.0 196.6C123.7 197.5 119.0 200.3 109.4 206.1C93.7 215.4 94.7 214.8 85.6 222.5C83.4 224.4 77.6 229.1 72.6 233.1C67.7 237.1 63.0 240.9 62.1 241.6C61.3 242.3 59.8 243.6 58.8 244.4C57.7 245.2 55.5 247.0 53.9 248.4C52.2 249.8 48.8 252.6 46.3 254.6C43.8 256.6 40.0 259.7 37.9 261.5C35.8 263.2 31.9 266.5 29.2 268.6C16.7 278.8 11.1 283.7 11.1 284.3C11.1 284.8 13.8 284.9 53.7 284.8C85.9 284.7 91.2 284.7 91.5 284.4ZM324.1 284.3C324.1 283.9 322.9 282.8 315.1 276.3C313.0 274.6 310.6 272.6 309.8 271.9C309.0 271.3 307.3 269.9 306.0 268.8C304.7 267.8 302.7 266.1 301.6 265.2C294.2 259.0 288.9 254.6 282.2 249.2C279.4 247.0 276.4 244.5 275.6 243.9C274.8 243.2 271.7 240.7 268.9 238.4C266.0 236.0 262.2 233.0 260.5 231.6C258.8 230.3 256.4 228.3 255.1 227.2C243.0 217.3 239.4 214.7 231.2 209.6C223.5 204.8 220.3 203.0 219.8 203.0C219.2 203.0 211.4 206.8 208.6 208.4C207.8 208.9 204.0 210.9 200.2 212.9C187.5 219.7 178.1 225.0 177.5 225.7C177.0 226.2 177.6 226.7 183.0 229.5C188.2 232.2 190.7 233.6 194.4 235.5C195.6 236.2 197.8 237.3 199.2 238.0C200.6 238.8 202.3 239.7 202.9 240.0C203.6 240.4 205.7 241.5 207.6 242.5C209.6 243.5 211.7 244.7 212.3 245.0C213.0 245.4 213.6 245.8 213.6 245.8C213.7 245.8 215.8 246.9 218.4 248.3C221.0 249.8 224.8 251.8 226.8 252.8C231.1 254.9 230.7 254.3 233.6 261.9C234.5 264.2 235.4 266.4 235.6 266.8C235.8 267.1 236.6 268.9 237.3 270.8C238.1 272.6 239.3 275.5 240.0 277.1C240.7 278.8 241.6 280.7 241.9 281.4C242.7 283.3 243.2 284.2 243.7 284.5C244.5 284.9 324.1 284.7 324.1 284.3ZM7.9 275.8C8.6 275.3 11.8 272.6 15.1 269.9C18.4 267.1 22.8 263.5 24.9 261.9C26.9 260.2 30.1 257.6 32.0 256.0C37.8 251.0 41.8 247.8 50.4 240.9C53.0 238.8 56.6 235.8 62.8 230.6C65.9 228.0 70.0 224.7 78.6 217.9C79.9 216.9 82.8 214.6 85.1 212.7C90.8 208.2 91.4 207.8 96.9 204.4C104.2 199.8 106.5 198.3 106.5 197.9C106.5 197.5 100.4 193.8 91.1 188.6C84.3 184.7 84.8 185.5 83.6 177.2C83.1 173.6 82.6 170.1 82.3 167.9C82.0 165.8 81.3 161.1 81.0 158.6C80.8 157.7 80.4 154.9 80.1 152.5C79.7 150.1 79.3 147.2 79.2 146.1C79.1 145.0 78.8 143.3 78.6 142.2C78.4 141.2 78.1 139.4 78.0 138.2C77.8 137.1 77.6 135.2 77.4 134.1C77.2 133.0 76.8 130.7 76.6 129.0C76.1 125.5 75.9 124.9 75.4 125.6C75.1 126.0 72.4 131.7 70.4 136.4C69.9 137.5 68.5 140.7 67.2 143.5C65.9 146.3 63.3 152.0 61.4 156.1C59.5 160.2 57.6 164.3 57.3 165.1C56.9 165.9 55.0 170.0 53.1 174.1C51.2 178.2 49.6 181.7 49.5 181.9C49.4 182.0 49.2 182.6 48.9 183.1C48.6 184.0 48.1 185.1 45.2 191.2C44.7 192.3 44.3 193.3 44.3 193.4C44.3 193.4 43.8 194.4 43.2 195.6C42.7 196.7 41.9 198.3 41.6 199.1C40.8 200.9 37.8 207.6 36.2 211.0C35.6 212.3 34.7 214.1 34.3 215.0C33.9 215.9 33.2 217.4 32.7 218.4C31.8 220.3 30.5 223.3 25.4 234.4C23.5 238.5 21.6 242.6 21.2 243.5C20.8 244.4 19.9 246.2 19.3 247.6C18.7 249.0 17.7 251.2 17.1 252.4C16.5 253.7 16.0 254.8 16.0 254.9C16.0 254.9 15.3 256.4 14.5 258.1C13.7 259.9 13.0 261.3 13.0 261.4C13.0 261.4 7.9 272.3 6.5 275.1C5.6 276.9 6.1 277.2 7.9 275.8ZM329.0 276.1C329.0 275.9 328.8 275.3 328.5 274.8C328.3 274.3 327.2 272.1 326.2 269.9C325.2 267.7 324.4 265.8 324.2 265.6C324.1 265.5 323.7 264.6 323.4 263.8C323.0 262.9 322.0 260.6 321.1 258.8C318.5 253.4 314.5 244.9 311.6 238.5C311.0 237.2 310.1 235.3 309.6 234.3C309.2 233.3 308.8 232.4 308.8 232.4C308.8 232.3 308.4 231.4 307.9 230.4C305.8 225.9 304.8 223.7 304.8 223.6C304.8 223.6 304.4 222.8 304.0 221.9C303.6 221.1 302.4 218.6 301.5 216.5C300.5 214.4 299.2 211.7 298.7 210.5C298.1 209.3 297.1 207.1 296.4 205.5C295.7 203.9 294.6 201.6 294.0 200.4C293.4 199.1 292.4 197.1 291.8 195.8C291.2 194.4 290.2 192.4 289.7 191.1C289.1 189.9 288.2 187.8 287.6 186.5C286.9 185.2 286.3 183.7 286.1 183.1C285.9 182.6 285.6 181.9 285.4 181.6C285.2 181.3 284.5 179.8 283.8 178.2C283.1 176.7 281.8 173.8 280.9 171.9C280.0 169.9 278.9 167.8 278.6 167.0C278.2 166.2 277.4 164.6 276.8 163.3C276.2 162.1 275.8 161.0 275.8 160.9C275.8 160.8 275.2 159.6 274.6 158.3C274.0 157.0 273.0 154.9 272.5 153.8C272.0 152.6 271.2 150.8 270.7 149.8C270.2 148.7 269.3 146.8 268.8 145.5C268.2 144.2 267.6 143.0 267.5 142.7C267.4 142.5 266.2 139.9 264.9 137.0C263.6 134.0 262.2 130.9 261.8 130.0C261.4 129.1 260.9 127.9 260.6 127.3C259.5 124.8 259.3 125.1 258.5 130.1C258.2 132.2 257.9 134.4 257.7 135.1C257.6 135.8 257.4 137.6 257.2 139.0C257.1 140.4 256.8 142.3 256.6 143.0C256.4 143.8 256.1 145.5 256.0 146.8C255.9 148.1 255.4 151.2 255.0 153.8C254.6 156.3 254.2 159.2 254.1 160.2C254.0 161.3 253.8 162.8 253.6 163.6C253.4 164.4 253.2 166.0 253.1 167.1C253.0 168.2 252.9 169.7 252.7 170.4C252.6 171.0 252.2 173.9 251.7 176.7C250.5 185.4 251.1 184.4 244.5 188.2C242.3 189.5 232.9 194.9 229.6 196.9C227.7 197.9 227.9 198.3 230.4 199.9C230.9 200.2 233.0 201.4 235.1 202.7C237.2 204.0 240.3 206.0 242.1 207.1C245.9 209.4 249.5 212.1 257.1 218.4C260.1 220.9 265.1 224.9 268.1 227.3C273.6 231.7 276.1 233.7 280.5 237.3C281.8 238.4 284.2 240.3 285.8 241.6C287.3 242.9 290.2 245.3 292.1 247.0C294.1 248.7 298.4 252.3 301.9 255.0C305.3 257.7 309.1 260.8 310.4 261.9C319.9 269.8 328.3 276.5 328.7 276.5C328.9 276.5 329.0 276.3 329.0 276.1ZM118.2 191.3C119.5 190.5 121.6 189.2 122.7 188.5C123.8 187.7 125.3 186.8 125.9 186.4C126.6 186.0 127.5 185.4 128.0 185.1C128.5 184.8 131.2 183.2 134.0 181.5C141.4 177.1 141.4 177.1 151.2 170.9C152.1 170.3 153.9 169.2 155.1 168.5C159.1 166.0 159.1 166.4 153.9 163.1C151.8 161.8 148.2 159.5 145.9 157.9C143.5 156.4 139.3 153.7 136.5 152.0C127.9 146.6 127.1 146.1 118.4 140.4C109.3 134.4 107.0 133.0 102.9 130.4C100.3 128.8 98.0 127.3 88.1 120.8C83.5 117.8 83.1 117.7 83.3 119.3C83.7 122.0 84.5 127.2 84.7 128.0C84.9 128.5 85.0 129.8 85.1 131.0C85.2 132.2 85.4 133.8 85.6 134.5C85.8 135.2 86.0 136.6 86.1 137.6C86.3 139.3 87.6 149.0 88.4 154.1C88.6 155.5 88.9 157.6 89.0 158.8C89.2 159.9 89.5 162.2 89.8 163.9C90.0 165.5 90.4 168.2 90.6 169.8C91.7 177.3 92.1 179.6 92.5 180.0C92.9 180.4 103.7 186.6 108.6 189.3C116.4 193.4 115.1 193.2 118.2 191.3ZM220.4 192.4C220.7 192.2 222.0 191.5 223.5 190.7C228.4 188.3 241.9 180.7 242.4 180.2C243.0 179.6 243.4 177.8 244.0 173.0C244.6 168.1 245.3 163.4 245.4 163.2C245.4 163.1 245.7 161.5 245.9 159.6C246.1 157.7 246.4 155.9 246.5 155.6C246.6 155.3 246.8 154.4 246.9 153.6C247.0 152.8 247.4 149.6 247.9 146.5C248.3 143.4 248.8 140.1 248.9 139.1C249.0 138.2 249.2 136.8 249.4 136.0C249.6 135.2 249.8 133.8 249.9 132.8C250.0 131.7 250.2 130.0 250.4 129.0C250.8 127.1 252.0 118.9 252.0 118.5C252.0 117.9 251.2 118.0 249.9 118.8C248.6 119.7 235.9 127.9 233.6 129.4C232.9 129.8 230.5 131.3 228.2 132.8C223.8 135.6 215.3 141.0 209.5 144.8C204.0 148.4 200.7 150.5 197.4 152.5C195.8 153.5 192.6 155.5 190.2 157.1C187.9 158.6 184.8 160.7 183.2 161.6C177.0 165.6 176.7 165.8 176.8 166.2C176.9 166.7 178.1 167.5 184.4 171.5C190.4 175.3 190.6 175.4 193.1 177.0C194.3 177.8 195.7 178.7 196.3 179.0C196.9 179.4 198.4 180.3 199.6 181.1C200.9 181.9 202.6 182.9 203.5 183.4C204.4 183.9 206.9 185.4 209.0 186.7C218.3 192.5 219.5 193.0 220.4 192.4ZM141.1 143.8C141.6 143.0 144.5 136.8 144.5 136.6C144.5 136.5 145.4 134.4 146.4 132.4C146.6 132.0 147.3 130.3 148.0 128.7C148.7 127.1 149.3 125.6 149.5 125.3C149.6 125.1 150.1 124.0 150.5 123.0C151.8 119.9 153.0 117.2 153.5 116.1C153.8 115.6 154.4 114.2 154.8 113.1C156.8 108.6 160.1 101.1 160.5 100.1C160.8 99.6 161.4 98.2 161.8 97.1C162.3 96.0 163.3 93.8 163.9 92.2C164.6 90.7 165.6 88.1 166.1 86.5C166.6 85.0 167.2 83.4 167.4 83.0C167.6 82.6 167.9 81.9 168.1 81.3C168.7 79.6 171.0 73.9 171.4 73.1C171.6 72.7 172.2 71.1 172.9 69.5C173.5 67.9 174.2 66.3 174.4 65.9C174.8 64.9 175.5 63.4 176.8 60.4C177.3 59.0 178.1 57.1 178.5 56.2C179.4 54.1 181.6 48.6 182.9 45.4C183.4 44.0 184.2 41.9 184.7 40.8C185.2 39.6 185.8 38.1 186.0 37.5C186.2 36.9 187.0 35.0 187.7 33.4C188.4 31.7 189.2 29.9 189.5 29.2C189.8 28.6 190.6 26.8 191.3 25.1C192.5 22.3 194.7 16.9 195.8 14.2C196.0 13.5 196.4 12.8 196.5 12.6C197.7 10.4 198.8 6.7 198.4 6.3C197.8 5.9 132.5 5.8 131.4 6.2C130.9 6.4 130.5 6.9 130.2 7.7C129.9 8.3 128.9 10.6 127.9 12.8C127.0 14.9 126.0 17.1 125.7 17.8C125.4 18.4 124.8 19.8 124.2 20.9C123.7 22.1 123.2 23.0 123.2 23.1C123.2 23.2 122.7 24.4 120.1 29.9C119.7 30.8 119.0 32.4 118.6 33.2C118.3 34.1 117.9 35.0 117.7 35.1C117.6 35.3 117.1 36.4 116.6 37.6C116.0 38.9 115.0 41.1 114.3 42.6C113.6 44.1 113.0 45.3 113.0 45.4C113.0 45.4 112.4 46.8 111.6 48.4C110.8 50.0 109.9 52.0 109.5 52.9C109.1 53.7 108.3 55.5 107.6 56.9C107.0 58.2 106.0 60.4 105.4 61.6C104.9 62.9 104.2 64.4 103.9 65.1C103.6 65.8 102.9 67.4 102.3 68.6C101.8 69.9 100.9 71.8 100.3 73.0C99.8 74.2 98.5 77.0 97.4 79.2C95.7 83.0 95.0 84.6 92.0 90.9C91.4 92.1 91.0 93.1 91.0 93.1C91.0 93.2 90.6 94.1 90.1 95.1C88.2 99.2 87.2 101.2 87.2 101.4C87.2 101.4 86.6 102.8 85.9 104.3C84.1 108.0 84.1 108.2 85.8 109.4C87.3 110.5 89.4 111.9 98.4 117.7C99.6 118.4 104.2 121.5 108.6 124.4C117.9 130.5 119.3 131.4 124.5 134.7C129.3 137.7 134.1 140.8 137.2 142.9C139.8 144.6 140.6 144.8 141.1 143.8ZM198.0 142.7C200.4 141.1 204.4 138.5 207.2 136.7C220.4 128.4 220.0 128.6 226.6 124.3C229.2 122.6 232.3 120.6 233.5 119.9C241.6 115.0 250.8 108.8 250.8 108.1C250.8 107.8 246.2 97.8 243.4 91.9C242.5 90.0 241.8 88.4 241.8 88.4C241.8 88.3 241.1 87.0 240.4 85.5C238.7 81.8 238.3 80.9 235.3 74.3C232.6 68.5 231.9 66.8 228.6 60.1C227.6 57.9 226.3 55.1 225.7 53.9C225.2 52.6 224.4 50.9 223.9 50.0C223.5 49.1 222.8 47.5 222.4 46.5C221.9 45.4 221.4 44.4 221.3 44.1C220.8 43.3 219.5 40.3 219.5 40.2C219.5 40.1 218.9 38.7 218.1 37.2C217.4 35.6 216.8 34.2 216.8 34.2C216.8 34.1 215.9 32.2 214.8 30.0C213.7 27.7 212.4 24.9 211.9 23.8C211.4 22.6 210.7 21.0 210.3 20.3C210.0 19.6 209.8 19.0 209.8 18.9C209.8 18.5 206.5 12.0 206.3 12.0C205.9 12.0 205.2 13.4 204.4 15.6C204.1 16.6 203.6 17.7 203.4 18.1C203.2 18.5 203.0 19.1 203.0 19.3C203.0 19.5 202.9 19.8 202.8 19.9C202.6 19.9 202.2 20.9 201.8 21.9C201.4 23.0 200.7 24.7 200.2 25.8C199.8 26.8 198.9 29.0 198.2 30.8C197.5 32.5 196.9 34.1 196.8 34.4C196.4 35.1 195.4 37.5 194.3 40.4C193.7 41.8 193.0 43.5 192.6 44.2C192.3 45.0 191.6 46.8 191.0 48.1C190.4 49.5 189.8 51.1 189.5 51.6C189.3 52.2 188.8 53.2 188.6 53.9C188.3 54.6 187.3 56.9 186.4 59.0C185.5 61.1 184.2 64.4 183.5 66.2C182.8 68.1 181.9 70.2 181.6 70.9C181.3 71.6 181.0 72.3 181.0 72.5C181.0 72.7 180.8 73.1 180.6 73.5C180.4 73.8 180.0 74.9 179.6 75.8C179.3 76.6 178.8 77.7 178.6 78.1C178.4 78.5 177.6 80.5 176.7 82.5C175.9 84.5 174.9 86.7 174.6 87.5C173.4 90.3 172.2 93.4 172.2 94.0C172.2 94.8 173.7 98.3 176.4 104.1C178.2 108.1 178.9 109.6 181.1 114.2C182.4 117.1 184.9 122.8 185.1 123.5C185.2 123.8 185.4 124.2 185.5 124.4C185.6 124.5 186.3 126.0 187.0 127.8C187.7 129.5 188.4 131.0 188.5 131.1C188.6 131.3 189.4 133.1 190.4 135.2C194.8 145.5 194.4 145.1 198.0 142.7Z"/></g></svg>